Coordinates
version=1
nRows=29
nColumns=22
inDegrees=yes

Units are S.I. units (second, meters, Newtons, ...)
If the header above contains a line with 'inDegrees', this indicates whether rotational values are in degrees (yes) or radians (no).

endheader
time	pelvis_tilt	pelvis_list	pelvis_rotation	pelvis_tx	pelvis_ty	pelvis_tz	hip_flexion_r	hip_adduction_r	hip_rotation_r	knee_angle_r	ankle_angle_r	subtalar_angle_r	hip_flexion_l	hip_adduction_l	hip_rotation_l	knee_angle_l	ankle_angle_l	subtalar_angle_l	lumbar_extension	lumbar_bending	lumbar_rotation
      1.93000000	      3.52851627	     -0.69671021	    -31.32418210	      0.25891744	      0.87409826	      0.39285454	     31.93245219	     -9.01756156	      0.42438123	    -62.72386264	     11.33019027	    -13.10354196	     -5.74822332	      8.56384994	      0.12783602	    -29.80034182	     22.58069952	    -12.67196447	    -13.18131926	     -0.65306105	     -5.85073588
      1.94000000	      3.13913295	     -1.75441456	    -31.18585928	      0.27630055	      0.88087997	      0.40555577	     31.04889224	     -7.86105709	     -1.56626559	    -57.61938766	     10.87562595	    -11.72459659	     -7.77593882	      6.91896222	     -0.29225854	    -28.82975413	     19.35139142	    -10.93959627	    -12.88137476	      0.76762002	     -7.49727049
      1.95000000	      2.94449668	     -2.76164974	    -30.87037681	      0.29398854	      0.88789651	      0.41823709	     29.65985579	     -6.83855079	     -3.67683224	    -52.27138155	     10.17635596	     -9.91003045	     -9.68176222	      5.39519630	     -0.51184586	    -28.20839581	     15.67401337	     -9.21032025	    -12.70310912	      2.01905212	     -9.13778797
      1.96000000	      2.89701558	     -3.63247449	    -30.39108623	      0.31193923	      0.89480538	      0.43086944	     27.96976454	     -5.97681150	     -5.88102843	    -46.87025283	      9.15254223	     -7.64899175	    -11.33029919	      4.04351478	     -0.46117560	    -27.98800109	     11.65316458	     -7.43384104	    -12.53306448	      3.03563896	    -10.67807476
      1.97000000	      2.99703942	     -4.30920604	    -29.80190107	      0.33001111	      0.90136730	      0.44347523	     26.12762095	     -5.25927708	     -8.03504048	    -41.60944028	      7.87436424	     -5.09578914	    -12.66891519	      2.92763032	     -0.11269244	    -28.18707242	      7.38944706	     -5.70653555	    -12.34878061	      3.74614927	    -12.07645738
      1.98000000	      3.21773057	     -4.75609482	    -29.17018520	      0.34804598	      0.90734247	      0.45607483	     24.29310782	     -4.66048017	     -9.97642707	    -36.68095601	      6.42429226	     -2.44434315	    -13.63409611	      2.08669915	      0.51452295	    -28.84330779	      3.01972649	     -4.07077858	    -12.12666849	      4.11959478	    -13.29573102
      1.99000000	      3.51678764	     -5.01458306	    -28.57438470	      0.36593410	      0.91257418	      0.46872934	     22.55715846	     -4.11701614	    -11.60652892	    -32.21650951	      4.90377095	      0.03209820	    -14.21995124	      1.48317518	      1.31457807	    -29.96325799	     -1.29393376	     -2.54088423	    -11.87568607	      4.21122450	    -14.23440372
      2.00000000	      3.81641914	     -5.03382880	    -28.00904801	      0.38360830	      0.91680317	      0.48129444	     21.09756526	     -3.70443168	    -12.91419495	    -28.37305476	      3.35065290	      2.39062506	    -14.31898739	      1.16291979	      2.35632250	    -31.57496981	     -5.37303838	     -1.07015879	    -11.51522949	      4.02638657	    -14.96336279
      2.01000000	      4.07813875	     -4.90813281	    -27.52429644	      0.40101808	      0.91994646	      0.49380952	     19.91230770	     -3.35121444	    -13.90036848	    -25.18347783	      1.92983605	      4.45325147	    -13.95613514	      1.02810645	      3.44490923	    -33.69097918	     -9.07170860	      0.32899243	    -11.08046446	      3.67874119	    -15.42724051
      2.02000000	      4.27229202	     -4.73016914	    -27.13050120	      0.41816980	      0.92194951	      0.50628516	     18.96449416	     -2.99925116	    -14.64475190	    -22.62983005	      0.71479368	      6.11859082	    -13.17799729	      0.97344282	      4.44323990	    -36.28502635	    -12.26567573	      1.65435924	    -10.59939606	      3.28473403	    -15.62499129
      2.03000000	      4.37521915	     -4.59256878	    -26.76831196	      0.43509353	      0.92276330	      0.51865472	     18.19243696	     -2.60183011	    -15.32403166	    -20.66157806	     -0.24448350	      7.19833673	    -12.00641456	      0.86052771	      5.26762281	    -39.36066945	    -14.78644701	      2.81635481	    -10.09778896	      2.96723259	    -15.67064667
      2.04000000	      4.48991980	     -4.52553026	    -26.58493912	      0.45166352	      0.92250775	      0.53112629	     17.51699506	     -2.14537972	    -15.77928251	    -19.28574358	     -1.00041758	      7.98187691	    -10.65099273	      0.71330772	      5.74075664	    -42.73904441	    -16.83793911	      4.09810020	     -9.71737254	      2.68037894	    -15.38051817
      2.05000000	      4.51537229	     -4.61071417	    -26.38718526	      0.46805570	      0.92105204	      0.54348357	     16.89538108	     -1.57501537	    -16.36714889	    -18.36329275	     -1.43104982	      8.01520333	     -9.02073742	      0.32880126	      6.00259993	    -46.46708481	    -18.04139024	      4.97458342	     -9.36775424	      2.60129117	    -15.02750378
      2.06000000	      4.56164580	     -4.79553414	    -26.28502269	      0.48415591	      0.91851932	      0.55584247	     16.32535126	     -0.98157094	    -16.97901022	    -17.98558055	     -1.46415792	      7.39617722	     -7.28476019	     -0.16597583	      6.07008452	    -50.36186947	    -18.72917406	      6.00864281	     -9.15301801	      2.59733415	    -14.45977028
      2.07000000	      4.61127384	     -5.11192887	    -26.21411515	      0.49994678	      0.91494369	      0.56807870	     15.76357235	     -0.32672334	    -17.58967400	    -18.04619632	     -1.06076573	      5.90475770	     -5.43630433	     -0.83146413	      6.04460491	    -54.40493910	    -18.71188664	      6.68856922	     -9.07613034	      2.73034866	    -13.81883203
      2.08000000	      4.68790387	     -5.54746668	    -26.20508231	      0.51539746	      0.91042223	      0.58018826	     15.22063996	      0.36981799	    -18.12589339	    -18.56289174	     -0.08082991	      3.49934157	     -3.52430460	     -1.63790235	      5.95875397	    -58.50994287	    -18.17082240	      7.01919617	     -9.16013305	      2.97537291	    -13.04325243
      2.09000000	      4.78413343	     -6.08946165	    -26.26026549	      0.53045373	      0.90504249	      0.59208328	     14.73126079	      1.10449248	    -18.49519451	    -19.53722229	      1.57420431	      0.43673368	     -1.54807955	     -2.54829683	      5.89802597	    -62.62798635	    -17.13651189	      7.01257400	     -9.40263824	      3.33001741	    -12.12457515
      2.10000000	      4.90144054	     -6.72144656	    -26.38874389	      0.54500461	      0.89892306	      0.60370496	     14.36991342	      1.86505300	    -18.59784894	    -21.05104776	      3.88048194	     -3.13858048	      0.50027947	     -3.53664805	      5.88548092	    -66.71993222	    -15.72510881	      6.73457054	     -9.81797181	      3.77248742	    -11.10366739
      2.11000000	      5.05502470	     -7.42667151	    -26.61263462	      0.55904079	      0.89228195	      0.61501346	     14.16708856	      2.63318880	    -18.42158489	    -23.14089205	      6.70708505	     -6.91806858	      2.58751133	     -4.55146569	      5.93912034	    -70.70771226	    -14.06761725	      6.26712037	    -10.41660446	      4.27537345	     -9.88499992
      2.12000000	      5.13370209	     -8.18105403	    -26.92426068	      0.57248630	      0.88512812	      0.62594967	     14.26101734	      3.47139772	    -17.87967293	    -25.78602068	      9.84333285	    -10.47882482	      4.87477253	     -5.61810255	      6.09208215	    -74.60281323	    -12.38817104	      5.70834150	    -11.07777127	      4.87628912	     -8.57037164
      2.13000000	      5.30143924	     -8.98263331	    -27.34925709	      0.58541460	      0.87798481	      0.63657016	     14.45897469	      4.32801563	    -17.00648548	    -28.90175547	     13.03715814	    -13.86350400	      7.11132896	     -6.63272758	      6.30639772	    -78.24111600	    -10.53011466	      5.11118155	    -11.96333486	      5.46752212	     -7.07707353
      2.14000000	      5.41846409	     -9.77553901	    -27.87827982	      0.59786028	      0.87087725	      0.64688929	     14.84161376	      5.26016773	    -15.82431562	    -32.29798806	     16.07633533	    -16.72913679	      9.48883788	     -7.61109623	      6.60018491	    -81.61486863	     -8.73128385	      4.52391525	    -12.87965751	      6.06466660	     -5.49229435
      2.15000000	      5.54446718	    -10.57845239	    -28.48221248	      0.61000607	      0.86424295	      0.65697357	     15.17506440	      6.27345825	    -14.47944047	    -35.67713139	     18.80969742	    -19.06071215	     11.88358953	     -8.54039701	      6.97005963	    -84.60887063	     -6.97712127	      3.96383738	    -13.86232747	      6.64795959	     -3.83577435
      2.16000000	      5.68632411	    -11.40298104	    -29.10106732	      0.62205517	      0.85840866	      0.66683061	     15.27536646	      7.35081016	    -13.15472666	    -38.74896017	     21.18597984	    -20.83166377	     14.25342174	     -9.41964926	      7.44295445	    -87.14638498	     -5.30556033	      3.44147519	    -14.88295080	      7.23287874	     -2.17463863
      2.17000000	      5.79371889	    -12.23543285	    -29.66814065	      0.63417560	      0.85352116	      0.67643619	     15.07168714	      8.45727880	    -11.99969646	    -41.30024753	     23.21306442	    -21.96742485	     16.65271640	    -10.24612872	      8.06256401	    -89.18766140	     -3.83239496	      2.98731092	    -15.84510879	      7.84892123	     -0.56085928
      2.18000000	      5.95118995	    -13.06230288	    -30.09541205	      0.64652187	      0.84982418	      0.68572639	     14.42310753	      9.47614236	    -11.13070525	    -43.22523159	     24.96845503	    -22.83185971	     18.96182252	    -10.93409404	      8.83316748	    -90.65972536	     -2.34220317	      2.53588481	    -16.79249507	      8.45168507	      0.89693840
      2.19000000	      6.02939115	    -13.84004334	    -30.36273954	      0.65910260	      0.84712434	      0.69470170	     13.47467007	     10.42685185	    -10.53589621	    -44.49160199	     26.47024520	    -23.18940458	     21.35595476	    -11.49815278	      9.77107638	    -91.58845944	     -1.11922009	      2.21141932	    -17.55600555	      9.08010544	      2.21990714
      2.20000000	      6.09101033	    -14.48321430	    -30.45656345	      0.67193471	      0.84542242	      0.70336246	     12.25801784	     11.19844963	    -10.16324791	    -45.16948717	     27.79841230	    -23.48926945	     23.75209753	    -11.81823212	     10.77882090	    -91.92232135	      0.07409243	      1.82232846	    -18.13521153	      9.61363042	      3.38512761
      2.21000000	      6.10880040	    -15.00254180	    -30.40142451	      0.68498812	      0.84466468	      0.71177794	     10.82278125	     11.83911712	     -9.96045190	    -45.28481305	     28.89256542	    -23.47039761	     26.12670296	    -11.94152778	     11.79587089	    -91.65218448	      1.09106381	      1.69621079	    -18.51186275	     10.06723745	      4.44659120
